<mxfile host="app.diagrams.net" modified="2024-02-05T18:52:13.047Z" agent="Mozilla/5.0 (Windows NT 10.0; Win64; x64) AppleWebKit/537.36 (KHTML, like Gecko) Chrome/121.0.0.0 Safari/537.36" version="23.1.1" etag="5XdlcMChHHCq5AhL59G8" type="github">
  <diagram name="PÃ¡gina-1" id="xCtE24lZmDWzQuAe8FKg">
    <mxGraphModel>
      <root>
        <mxCell id="0" />
        <mxCell id="1" parent="0" />
      </root>
    </mxGraphModel>
  </diagram>
</mxfile>
